TITLE ""
FILE "LR_black_phrase_E_C04.mp3" MP3
  TRACK 01 AUDIO
    TITLE "LR_black_phrase_E_C04_001"
    INDEX 01 00:00:00
  TRACK 02 AUDIO
    TITLE "LR_black_phrase_E_C04_002"
    INDEX 01 00:00:16
  TRACK 03 AUDIO
    TITLE "LR_black_phrase_E_C04_003"
    INDEX 01 00:01:35
  TRACK 04 AUDIO
    TITLE "LR_black_phrase_E_C04_004"
    INDEX 01 00:01:65
  TRACK 05 AUDIO
    TITLE "LR_black_phrase_E_C04_005"
    INDEX 01 00:03:71
  TRACK 06 AUDIO
    TITLE "LR_black_phrase_E_C04_006"
    INDEX 01 00:04:53
  TRACK 07 AUDIO
    TITLE "LR_black_phrase_E_C04_007"
    INDEX 01 00:06:58
  TRACK 08 AUDIO
    TITLE "LR_black_phrase_E_C04_008"
    INDEX 01 00:07:65
  TRACK 09 AUDIO
    TITLE "LR_black_phrase_E_C04_009"
    INDEX 01 00:09:25
  TRACK 10 AUDIO
    TITLE "LR_black_phrase_E_C04_010"
    INDEX 01 00:09:52
  TRACK 11 AUDIO
    TITLE "LR_black_phrase_E_C04_011"
    INDEX 01 00:11:55
  TRACK 12 AUDIO
    TITLE "LR_black_phrase_E_C04_012"
    INDEX 01 00:12:33
  TRACK 13 AUDIO
    TITLE "LR_black_phrase_E_C04_013"
    INDEX 01 00:14:36
  TRACK 14 AUDIO
    TITLE "LR_black_phrase_E_C04_014"
    INDEX 01 00:15:31
  TRACK 15 AUDIO
    TITLE "LR_black_phrase_E_C04_015"
    INDEX 01 00:16:45
  TRACK 16 AUDIO
    TITLE "LR_black_phrase_E_C04_016"
    INDEX 01 00:16:64
  TRACK 17 AUDIO
    TITLE "LR_black_phrase_E_C04_017"
    INDEX 01 00:18:63
  TRACK 18 AUDIO
    TITLE "LR_black_phrase_E_C04_018"
    INDEX 01 00:19:33
  TRACK 19 AUDIO
    TITLE "LR_black_phrase_E_C04_019"
    INDEX 01 00:21:30
  TRACK 20 AUDIO
    TITLE "LR_black_phrase_E_C04_020"
    INDEX 01 00:22:24
  TRACK 21 AUDIO
    TITLE "LR_black_phrase_E_C04_021"
    INDEX 01 00:23:56
  TRACK 22 AUDIO
    TITLE "LR_black_phrase_E_C04_022"
    INDEX 01 00:24:11
  TRACK 23 AUDIO
    TITLE "LR_black_phrase_E_C04_023"
    INDEX 01 00:26:14
  TRACK 24 AUDIO
    TITLE "LR_black_phrase_E_C04_024"
    INDEX 01 00:26:63
  TRACK 25 AUDIO
    TITLE "LR_black_phrase_E_C04_025"
    INDEX 01 00:28:69
  TRACK 26 AUDIO
    TITLE "LR_black_phrase_E_C04_026"
    INDEX 01 00:29:67
  TRACK 27 AUDIO
    TITLE "LR_black_phrase_E_C04_027"
    INDEX 01 00:31:09
  TRACK 28 AUDIO
    TITLE "LR_black_phrase_E_C04_028"
    INDEX 01 00:31:40
  TRACK 29 AUDIO
    TITLE "LR_black_phrase_E_C04_029"
    INDEX 01 00:33:47
  TRACK 30 AUDIO
    TITLE "LR_black_phrase_E_C04_030"
    INDEX 01 00:34:29
  TRACK 31 AUDIO
    TITLE "LR_black_phrase_E_C04_031"
    INDEX 01 00:36:36
  TRACK 32 AUDIO
    TITLE "LR_black_phrase_E_C04_032"
    INDEX 01 00:37:35
  TRACK 33 AUDIO
    TITLE "LR_black_phrase_E_C04_033"
    INDEX 01 00:38:46
  TRACK 34 AUDIO
    TITLE "LR_black_phrase_E_C04_034"
    INDEX 01 00:39:03
  TRACK 35 AUDIO
    TITLE "LR_black_phrase_E_C04_035"
    INDEX 01 00:40:73
  TRACK 36 AUDIO
    TITLE "LR_black_phrase_E_C04_036"
    INDEX 01 00:41:54
  TRACK 37 AUDIO
    TITLE "LR_black_phrase_E_C04_037"
    INDEX 01 00:43:51
  TRACK 38 AUDIO
    TITLE "LR_black_phrase_E_C04_038"
    INDEX 01 00:44:53
  TRACK 39 AUDIO
    TITLE "LR_black_phrase_E_C04_039"
    INDEX 01 00:46:06
  TRACK 40 AUDIO
    TITLE "LR_black_phrase_E_C04_040"
    INDEX 01 00:46:28
  TRACK 41 AUDIO
    TITLE "LR_black_phrase_E_C04_041"
    INDEX 01 00:48:31
  TRACK 42 AUDIO
    TITLE "LR_black_phrase_E_C04_042"
    INDEX 01 00:49:03
  TRACK 43 AUDIO
    TITLE "LR_black_phrase_E_C04_043"
    INDEX 01 00:51:06
  TRACK 44 AUDIO
    TITLE "LR_black_phrase_E_C04_044"
    INDEX 01 00:52:03
  TRACK 45 AUDIO
    TITLE "LR_black_phrase_E_C04_045"
    INDEX 01 00:53:50
  TRACK 46 AUDIO
    TITLE "LR_black_phrase_E_C04_046"
    INDEX 01 00:53:69
  TRACK 47 AUDIO
    TITLE "LR_black_phrase_E_C04_047"
    INDEX 01 00:56:32
  TRACK 48 AUDIO
    TITLE "LR_black_phrase_E_C04_048"
    INDEX 01 00:57:02
  TRACK 49 AUDIO
    TITLE "LR_black_phrase_E_C04_049"
    INDEX 01 00:59:40
  TRACK 50 AUDIO
    TITLE "LR_black_phrase_E_C04_050"
    INDEX 01 01:00:40
  TRACK 51 AUDIO
    TITLE "LR_black_phrase_E_C04_051"
    INDEX 01 01:01:49
  TRACK 52 AUDIO
    TITLE "LR_black_phrase_E_C04_052"
    INDEX 01 01:02:06
  TRACK 53 AUDIO
    TITLE "LR_black_phrase_E_C04_053"
    INDEX 01 01:03:58
  TRACK 54 AUDIO
    TITLE "LR_black_phrase_E_C04_054"
    INDEX 01 01:04:40
  TRACK 55 AUDIO
    TITLE "LR_black_phrase_E_C04_055"
    INDEX 01 01:06:19
  TRACK 56 AUDIO
    TITLE "LR_black_phrase_E_C04_056"
    INDEX 01 01:07:24
  TRACK 57 AUDIO
    TITLE "LR_black_phrase_E_C04_057"
    INDEX 01 01:08:55
  TRACK 58 AUDIO
    TITLE "LR_black_phrase_E_C04_058"
    INDEX 01 01:09:10
  TRACK 59 AUDIO
    TITLE "LR_black_phrase_E_C04_059"
    INDEX 01 01:11:22
  TRACK 60 AUDIO
    TITLE "LR_black_phrase_E_C04_060"
    INDEX 01 01:12:02
  TRACK 61 AUDIO
    TITLE "LR_black_phrase_E_C04_061"
    INDEX 01 01:14:15
  TRACK 62 AUDIO
    TITLE "LR_black_phrase_E_C04_062"
    INDEX 01 01:15:14
  TRACK 63 AUDIO
    TITLE "LR_black_phrase_E_C04_063"
    INDEX 01 01:16:29
  TRACK 64 AUDIO
    TITLE "LR_black_phrase_E_C04_064"
    INDEX 01 01:16:51
  TRACK 65 AUDIO
    TITLE "LR_black_phrase_E_C04_065"
    INDEX 01 01:18:48
  TRACK 66 AUDIO
    TITLE "LR_black_phrase_E_C04_066"
    INDEX 01 01:19:16
  TRACK 67 AUDIO
    TITLE "LR_black_phrase_E_C04_067"
    INDEX 01 01:21:13
  TRACK 68 AUDIO
    TITLE "LR_black_phrase_E_C04_068"
    INDEX 01 01:22:08
  TRACK 69 AUDIO
    TITLE "LR_black_phrase_E_C04_069"
    INDEX 01 01:23:23
  TRACK 70 AUDIO
    TITLE "LR_black_phrase_E_C04_070"
    INDEX 01 01:23:45
  TRACK 71 AUDIO
    TITLE "LR_black_phrase_E_C04_071"
    INDEX 01 01:25:44
  TRACK 72 AUDIO
    TITLE "LR_black_phrase_E_C04_072"
    INDEX 01 01:26:12
  TRACK 73 AUDIO
    TITLE "LR_black_phrase_E_C04_073"
    INDEX 01 01:28:11
  TRACK 74 AUDIO
    TITLE "LR_black_phrase_E_C04_074"
    INDEX 01 01:29:10
  TRACK 75 AUDIO
    TITLE "LR_black_phrase_E_C04_075"
    INDEX 01 01:30:39
  TRACK 76 AUDIO
    TITLE "LR_black_phrase_E_C04_076"
    INDEX 01 01:30:68
  TRACK 77 AUDIO
    TITLE "LR_black_phrase_E_C04_077"
    INDEX 01 01:33:22
  TRACK 78 AUDIO
    TITLE "LR_black_phrase_E_C04_078"
    INDEX 01 01:34:04
  TRACK 79 AUDIO
    TITLE "LR_black_phrase_E_C04_079"
    INDEX 01 01:36:32
  TRACK 80 AUDIO
    TITLE "LR_black_phrase_E_C04_080"
    INDEX 01 01:37:37
  TRACK 81 AUDIO
    TITLE "LR_black_phrase_E_C04_081"
    INDEX 01 01:38:66
  TRACK 82 AUDIO
    TITLE "LR_black_phrase_E_C04_082"
    INDEX 01 01:39:20
  TRACK 83 AUDIO
    TITLE "LR_black_phrase_E_C04_083"
    INDEX 01 01:41:25
  TRACK 84 AUDIO
    TITLE "LR_black_phrase_E_C04_084"
    INDEX 01 01:42:05
  TRACK 85 AUDIO
    TITLE "LR_black_phrase_E_C04_085"
    INDEX 01 01:44:12
  TRACK 86 AUDIO
    TITLE "LR_black_phrase_E_C04_086"
    INDEX 01 01:45:09
  TRACK 87 AUDIO
    TITLE "LR_black_phrase_E_C04_087"
    INDEX 01 01:46:26
  TRACK 88 AUDIO
    TITLE "LR_black_phrase_E_C04_088"
    INDEX 01 01:46:50
  TRACK 89 AUDIO
    TITLE "LR_black_phrase_E_C04_089"
    INDEX 01 01:49:05
  TRACK 90 AUDIO
    TITLE "LR_black_phrase_E_C04_090"
    INDEX 01 01:49:54
  TRACK 91 AUDIO
    TITLE "LR_black_phrase_E_C04_091"
    INDEX 01 01:52:13
  TRACK 92 AUDIO
    TITLE "LR_black_phrase_E_C04_092"
    INDEX 01 01:53:17
  TRACK 93 AUDIO
    TITLE "LR_black_phrase_E_C04_093"
    INDEX 01 01:54:26
  TRACK 94 AUDIO
    TITLE "LR_black_phrase_E_C04_094"
    INDEX 01 01:54:43
  TRACK 95 AUDIO
    TITLE "LR_black_phrase_E_C04_095"
    INDEX 01 01:56:50
  TRACK 96 AUDIO
    TITLE "LR_black_phrase_E_C04_096"
    INDEX 01 01:57:22
  TRACK 97 AUDIO
    TITLE "LR_black_phrase_E_C04_097"
    INDEX 01 01:59:27
  TRACK 98 AUDIO
    TITLE "LR_black_phrase_E_C04_098"
    INDEX 01 02:00:30
  TRACK 99 AUDIO
    TITLE "LR_black_phrase_E_C04_099"
    INDEX 01 02:01:51
  TRACK 100 AUDIO
    TITLE "LR_black_phrase_E_C04_100"
    INDEX 01 02:02:08
  TRACK 101 AUDIO
    TITLE "LR_black_phrase_E_C04_101"
    INDEX 01 02:04:48
  TRACK 102 AUDIO
    TITLE "LR_black_phrase_E_C04_102"
    INDEX 01 02:05:28
  TRACK 103 AUDIO
    TITLE "LR_black_phrase_E_C04_103"
    INDEX 01 02:07:68
  TRACK 104 AUDIO
    TITLE "LR_black_phrase_E_C04_104"
    INDEX 01 02:08:73
  TRACK 105 AUDIO
    TITLE "LR_black_phrase_E_C04_105"
    INDEX 01 02:10:13
  TRACK 106 AUDIO
    TITLE "LR_black_phrase_E_C04_106"
    INDEX 01 02:10:43
  TRACK 107 AUDIO
    TITLE "LR_black_phrase_E_C04_107"
    INDEX 01 02:12:32
  TRACK 108 AUDIO
    TITLE "LR_black_phrase_E_C04_108"
    INDEX 01 02:13:13
  TRACK 109 AUDIO
    TITLE "LR_black_phrase_E_C04_109"
    INDEX 01 02:15:03
  TRACK 110 AUDIO
    TITLE "LR_black_phrase_E_C04_110"
    INDEX 01 02:16:02
  TRACK 111 AUDIO
    TITLE "LR_black_phrase_E_C04_111"
    INDEX 01 02:17:11
  TRACK 112 AUDIO
    TITLE "LR_black_phrase_E_C04_112"
    INDEX 01 02:17:31
  TRACK 113 AUDIO
    TITLE "LR_black_phrase_E_C04_113"
    INDEX 01 02:19:59
  TRACK 114 AUDIO
    TITLE "LR_black_phrase_E_C04_114"
    INDEX 01 02:20:31
  TRACK 115 AUDIO
    TITLE "LR_black_phrase_E_C04_115"
    INDEX 01 02:22:61
  TRACK 116 AUDIO
    TITLE "LR_black_phrase_E_C04_116"
    INDEX 01 02:23:61
  TRACK 117 AUDIO
    TITLE "LR_black_phrase_E_C04_117"
    INDEX 01 02:24:56
  TRACK 118 AUDIO
    TITLE "LR_black_phrase_E_C04_118"
    INDEX 01 02:25:05
  TRACK 119 AUDIO
    TITLE "LR_black_phrase_E_C04_119"
    INDEX 01 02:27:25
  TRACK 120 AUDIO
    TITLE "LR_black_phrase_E_C04_120"
    INDEX 01 02:27:70
  TRACK 121 AUDIO
    TITLE "LR_black_phrase_E_C04_121"
    INDEX 01 02:30:18
